<?xml version="1.0" encoding="UTF-8" standalone="no"?>
<!-- Created with Inkscape (http://www.inkscape.org/) -->

<svg
   version="1.1"
   id="svg2"
   xml:space="preserve"
   width="1267.5867"
   height="276.66666"
   viewBox="0 0 1267.5867 276.66666"
   xmlns="http://www.w3.org/2000/svg"
   xmlns:svg="http://www.w3.org/2000/svg"><defs
     id="defs6" /><g
     id="g8"
     transform="matrix(1.3333333,0,0,-1.3333333,0,276.66667)"><g
       id="g10"
       transform="scale(0.1)"><path
         d="m 1992.91,1490.45 h 185.97 V 817.961 h 344.6 v -171.66 h -530.57 v 844.149"
         style="fill:#3e668b;fill-opacity:1;fill-rule:nonzero;stroke:none"
         id="path12" /><path
         d="m 3124.24,1490.45 h 186 V 646.301 h -186 v 844.149"
         style="fill:#3e668b;fill-opacity:1;fill-rule:nonzero;stroke:none"
         id="path14" /><path
         d="m 3987.31,1490.45 h 566.41 v -171.69 h -380.4 v -171.67 h 351.71 V 975.371 h -351.71 v -329.07 h -186.01 v 844.149"
         style="fill:#3e668b;fill-opacity:1;fill-rule:nonzero;stroke:none"
         id="path16" /><path
         d="m 5351.1,1325.89 h -240.86 v 164.6 h 667.72 v -164.6 H 5537.09 V 646.262 H 5351.1 v 679.628"
         style="fill:#3e668b;fill-opacity:1;fill-rule:nonzero;stroke:none"
         id="path18" /><path
         d="m 6701.23,796.512 c 158.6,0 262.25,114.457 262.25,271.828 0,157.44 -103.65,271.91 -262.25,271.91 -158.57,0 -262.29,-114.47 -262.29,-271.91 0,-157.371 103.72,-271.828 262.29,-271.828 m 0,715.398 c 263.48,0 455.47,-172.89 455.47,-443.57 0,-270.668 -191.99,-443.531 -455.47,-443.531 -263.48,0 -455.47,172.863 -455.47,443.531 0,270.68 191.99,443.57 455.47,443.57"
         style="fill:#3e668b;fill-opacity:1;fill-rule:nonzero;stroke:none"
         id="path20" /><path
         d="m 7732.9,1490.45 h 566.39 v -171.69 h -380.4 v -171.67 h 351.75 V 975.371 H 7918.89 V 646.301 H 7732.9 v 844.149"
         style="fill:#3e668b;fill-opacity:1;fill-rule:nonzero;stroke:none"
         id="path22" /><path
         d="m 8940.55,1490.45 h 566.35 v -171.69 h -380.37 v -171.67 h 351.75 V 975.371 h -351.75 v -329.07 h -185.98 v 844.149"
         style="fill:#3e668b;fill-opacity:1;fill-rule:nonzero;stroke:none"
         id="path24" /><path
         d="M 1020.73,586.609 H 765.355 c -11.722,0 -21.222,9.52 -21.222,21.219 v 426.662 c 0,0.26 0,0.49 0,0.76 v 430.43 c 0,3.09 -3.067,305.43 -222.731,556.01 -52.586,-63.5 -223.504,-290.4 -223.504,-556.01 v -430.43 c 0,-0.27 0,-0.5 0,-0.73 V 607.828 c 0,-11.699 -9.5,-21.219 -21.222,-21.219 H 21.2227 c -7.6446,0 -14.69145,4.11 -18.45317,10.75 -3.78125,6.661 -3.683593,14.821 0.2461,21.379 L 255.453,1040.76 v 424.92 c 0,329.27 239.824,591.56 250.035,602.57 4.012,4.31 9.649,6.76 15.555,6.76 v 0 c 5.898,0 11.535,-2.45 15.551,-6.76 247.148,-266.44 249.98,-588.97 249.98,-602.57 V 1040.76 L 1038.95,618.711 c 3.91,-6.531 4.01,-14.691 0.23,-21.352 -3.76,-6.64 -10.81,-10.75 -18.45,-10.75"
         style="fill:#3e668b;fill-opacity:1;fill-rule:nonzero;stroke:none"
         id="path26" /><path
         d="m 521.176,1595.07 c -42.813,0 -77.645,-34.45 -77.645,-76.8 0,-42.37 34.832,-76.86 77.645,-76.86 42.769,0 77.57,34.49 77.57,76.86 0,42.35 -34.801,76.8 -77.57,76.8 z m 0,-196.1 c -66.223,0 -120.086,53.51 -120.086,119.3 0,65.76 53.863,119.25 120.086,119.25 66.183,0 120.015,-53.49 120.015,-119.25 0,-65.79 -53.832,-119.3 -120.015,-119.3"
         style="fill:#3e668b;fill-opacity:1;fill-rule:nonzero;stroke:none"
         id="path28" /><path
         d="M 701.277,579.02 H 621.824 C 661.27,446.48 566.816,261.16 523.844,204.551 480.867,261.16 380.445,446.48 419.891,579.02 h -75.27 C 236.621,348.43 523.844,0 523.844,0 810.184,348.43 701.277,579.02 701.277,579.02"
         style="fill:#e2421f;fill-opacity:1;fill-rule:nonzero;stroke:none"
         id="path30" /><path
         d="m 461.32,579.02 c -40.8,-102.758 46.422,-265.008 62.524,-294.52 16.164,29.648 97.152,191.691 56.351,294.52 H 461.32"
         style="fill:#f79436;fill-opacity:1;fill-rule:nonzero;stroke:none"
         id="path32" /></g></g></svg>
